<?xml version="1.0" encoding="UTF-8"?>
<svg version="1.1" viewBox="0 0 2048 582" width="1280" height="1280" xmlns="http://www.w3.org/2000/svg">
<path transform="translate(303,12)" d="m0 0h26l23 2 24 4 23 6 25 9 25 12 23 14 12 9 10 8 14 12 14 14 9 11 12 15 11 17 10 18 9 19 9 24 7 27 4 25 1 10v46l-4 30-7 28-8 23-9 20-10 19-10 15-11 15-12 14-11 12-13 12-14 11-15 11-24 14-23 11-22 8-23 6-22 4-17 2-17 1h-14l-26-2-24-4-24-6-25-9-25-12-19-11-17-12-13-11-8-7-12-11-7-8-12-14-13-18-9-15-12-23-8-20-6-18-6-25-4-28-1-28 1-22 3-23 6-27 9-27 8-18 12-23 14-21 10-13 11-12 7-8 9-9 11-9 12-10 18-12 19-11 21-10 25-9 28-7 27-4z"/>
<path transform="translate(302,82)" d="m0 0h33l17 2 23 5 18 6 18 8 18 10 14 10 11 9 12 11 12 13 13 18 9 15 10 21 8 24 4 18 3 25v21l-2 21-5 24-8 24-11 23-11 17-10 13-9 10-16 16-13 10-17 11-19 10-21 8-23 6-19 3-10 1h-27l-23-3-21-5-20-7-25-12-14-9-10-8-6-9-2-5v-16l4-9 7-8 8-5 3-1h18l10 5 11 8 21 11 21 7 15 3 9 1h23l20-3 20-6 16-7 13-8 11-8 13-11 7-10 2-5v-13l-4-9-5-5-6-4-6-2h-8l-9 3-10 9-12 10-14 8-18 6-22 3-15-2-16-4-16-8-11-8-7-6-11-14-8-15-5-16-2-16 1-17 4-16 5-12 7-12 12-14 13-10 16-8 16-5 10-1h17l16 3 14 5 12 7 9 7 7 7 8 6 10 3 10-1 8-4 5-5 4-7 1-3v-13l-4-9-9-10-10-9-15-10-17-9-24-8-17-3-11-1h-12l-18 2-17 4-19 7-15 8-13 9-8 5-12 2-12-2-9-6-6-7-4-9v-16l6-12 8-7 15-10 18-10 20-8 20-6 21-4z" fill="#FDFDFD"/>
<path transform="translate(690,212)" d="m0 0h32l2 7 16 89v6h2v-11l14-81 2-10h33l1 1v159l-5 1h-18l-1-1v-112l-11 57-10 53-2 3h-9l-2-1-5-24-9-49-8-44v117l-1 1h-20l-2-2v-158z" fill="#123A07"/>
<path transform="translate(1667,212)" d="m0 0h39l16 3 9 6 7 9 4 13 1 8v83l-3 17-4 8-5 6-9 5-7 2-13 1h-34l-1-1v-74l-12 1-1-1v-17l1-1h11zm25 23v45l2 1h11v17h-13v51h17l6-4 2-5v-93l-4-6-3-3-12-3z" fill="#509013"/>
<path transform="translate(1029,212)" d="m0 0h38l14 3 11 7 6 8 4 10 1 4v19l-4 13-8 11-3 2 2 4 6 5 5 8 3 8 1 6v20l-3 12-6 10-7 6-12 4-13 1h-34l-1-1zm25 23-1 2v41l1 1h14l6-4 3-7 1-5v-13l-3-8-5-5-7-2zm0 67-1 5v40l1 2h16l7-6 3-12v-10l-2-10-6-7-5-2z" fill="#113906"/>
<path transform="translate(1532,253)" d="m0 0h12l6 4 4 8 7-6 12-6h11l5 3 4 5 2 5v106l-2 1h-20l-1-1-1-95-1-2-8 1-7 6-1 90-1 1h-18l-1-1-1-91-3-6h-6l-9 6-1 91-3 1h-19l-1-1v-117h23v10l10-8z" fill="#509014"/>
<path transform="translate(314,238)" d="m0 0h17l12 4 10 6 8 7 7 11 4 11 1 7v9l-2 10-4 10-6 8-9 9-14 7-9 2h-15l-13-4-11-7-8-8-6-10-4-13-1-11 2-10 5-12 6-9 7-7 10-6z" fill="#000100"/>
<path transform="translate(1945,252)" d="m0 0h18l10 5 8 8 3 7v46l-4 13-5 6-9 4-5 1h-13l-2 4v5l7 3 24 3 10 4 6 5 4 8 1 4v11l-5 10-7 6-11 4-15 2h-12l-14-2-9-4-6-7-1-3v-7l4-6 7-6 6-3-2-2-5-3-3-4-1-8 5-10 7-7-2-4-7-9-3-10v-37l4-13 6-8 8-5zm5 20-5 5v41l4 5 7 1 5-3 2-2 1-4v-35l-2-5-3-3zm-1 104-5 4-2 6 5 6 6 2h13l8-3 4-4v-5l-5-4-9-2z" fill="#509014"/>
<path transform="translate(1781,252)" d="m0 0h21l10 5 6 7 4 8 1 9v63l-2 13-4 8-8 7-8 3-14 1-12-3-8-6-6-10-2-7v-76l3-8 8-9 8-4zm5 20-4 4v74l5 5 5 1 6-3 2-2 1-5v-67l-3-5-2-2z" fill="#519115"/>
<path transform="translate(1885,253)" d="m0 0h11l6 4 3 5 1 4v106l-7 1h-14l-1-1-1-94-2-3-8 1-6 5-1 91-3 1h-19l-1-1v-117h23l1 10 11-9z" fill="#529217"/>
<path transform="translate(1248,253)" d="m0 0h11l6 4 3 5 1 4v106l-3 1h-18l-1-1-1-93-2-4-8 1-6 5-1 91-5 1h-17l-1-1v-117h23l1 10 8-7z" fill="#133A09"/>
<path transform="translate(855,254)" d="m0 0 22 1v117l-21 1-1-1-1-10-11 9-7 3-9 1-7-3-5-7-1-4v-106h21l1 1 1 94 2 2h6l8-5 1-3z" fill="#133B09"/>
<path transform="translate(924,252)" d="m0 0h15l10 4 5 4 5 8 2 6 1 8v60l-2 13-4 8-8 8-10 4-14 1-9-2-8-5-6-8-4-14v-19l4-12 9-10 9-4 13-2h7l-1-20-3-6-1-1h-10l-6 1-3-5-5-10 1-3zm-4 68-1 2 1 25 3 6 3 2h7l5-4 1-3v-27l-1-1z" fill="#123908"/>
<path transform="translate(1148,252)" d="m0 0h15l10 4 7 6 5 10 1 4v74l-4 10-6 8-10 6-11 2-12-1-8-3-5-4-5-8-3-10-1-14 2-14 6-11 6-5 8-4 20-3v-16l-3-9-2-1h-10l-6 1-7-14v-4zm-4 68v21l2 10 4 4h7l5-3 1-2 1-28-1-2z" fill="#103806"/>
<path transform="translate(1437,252)" d="m0 0h14l11 4 7 7 5 12 1 54-1 22-4 10-8 9-8 4-10 2-13-1-9-4-7-8-4-10-1-5v-21l4-11 6-8 11-6 20-3v-17l-3-8-2-1h-9l-7 1-7-15v-3zm-4 68-1 3 1 25 3 6 2 1h8l5-5 1-4v-25l-1-1z" fill="#4F8F12"/>
<path transform="translate(1339,213)" d="m0 0h24l1 1 1 127 3 5 4 2 28 1v10l-1 13-7 1-16 1h-11l-9-2-6-4-6-8-4-11-1-10z" fill="#549319"/>
<path transform="translate(1779,219)" d="m0 0h23l6 7 8 12 2 5h-18l-8-10h-2l-7 9-2 1h-17l2-5 8-11z" fill="#509014"/>
<path transform="translate(1433,219)" d="m0 0h22l7 9 9 13v2h-18l-8-10-3-1-2 4-4 6-2 1h-17l2-5 10-14z" fill="#4F8F13"/>
<path transform="translate(2009,348)" d="m0 0h24v24l-12 1h-11l-1-1z" fill="#58951F"/>
<path transform="translate(1153,219)" d="m0 0h29l-2 3h-2l-2 4-12 14-2 3h-19z" fill="#0F3805"/>
<path transform="translate(1763,189)" d="m0 0h27l3 4 8 18-1 3-18-1-9-11-10-12z" fill="#539218"/>
</svg>
